<svg width="16" height="16" viewBox="0 0 16 16" fill="none" xmlns="http://www.w3.org/2000/svg">
<g clip-path="url(#clip0_1_275)">
<path d="M12.0206 11.078L14.8759 13.9326L13.9326 14.876L11.0779 12.0206C10.0157 12.8721 8.69459 13.3352 7.33325 13.3333C4.02125 13.3333 1.33325 10.6453 1.33325 7.33331C1.33325 4.02131 4.02125 1.33331 7.33325 1.33331C10.6453 1.33331 13.3333 4.02131 13.3333 7.33331C13.3352 8.69465 12.8721 10.0158 12.0206 11.078ZM10.6833 10.5833C11.5293 9.71324 12.0018 8.54693 11.9999 7.33331C11.9999 4.75465 9.91125 2.66665 7.33325 2.66665C4.75459 2.66665 2.66659 4.75465 2.66659 7.33331C2.66659 9.91131 4.75459 12 7.33325 12C8.54687 12.0019 9.71318 11.5294 10.5833 10.6833L10.6833 10.5833Z" fill="white"/>
</g>
<defs>
<clipPath id="clip0_1_275">
<rect width="16" height="16" fill="white"/>
</clipPath>
</defs>
</svg>
