<svg width="19" height="19" viewBox="0 0 19 19" fill="none" xmlns="http://www.w3.org/2000/svg">
<g clip-path="url(#clip0_58_300)">
<path d="M4.48971 3.37011L10.6196 9.49999L9.50017 10.6194L4.49683 5.61607C3.5644 6.81858 3.09609 8.31661 3.17757 9.83609C3.25906 11.3556 3.88489 12.7949 4.94057 13.8908C5.99626 14.9867 7.41122 15.6659 8.9266 15.8041C10.442 15.9423 11.9565 15.5303 13.193 14.6435C14.4295 13.7566 15.3054 12.4542 15.6604 10.9745C16.0154 9.49486 15.8258 7.93683 15.1263 6.58549C14.4268 5.23414 13.2641 4.17981 11.851 3.6154C10.4378 3.05099 8.86876 3.01422 7.43075 3.51182L6.21475 2.29582C7.24596 1.82498 8.36655 1.58196 9.50017 1.58332C13.8725 1.58332 17.4168 5.12761 17.4168 9.49999C17.4168 13.8724 13.8725 17.4167 9.50017 17.4167C5.12779 17.4167 1.5835 13.8724 1.5835 9.49999C1.58231 8.32654 1.84251 7.16757 2.34521 6.10725C2.84791 5.04694 3.58048 4.11192 4.48971 3.37011Z" fill="#00A6F6"/>
</g>
<defs>
<clipPath id="clip0_58_300">
<rect width="19" height="19" fill="white"/>
</clipPath>
</defs>
</svg>
