<svg width="19" height="17" viewBox="0 0 19 17" fill="none" xmlns="http://www.w3.org/2000/svg">
<g clip-path="url(#clip0_58_311)">
<path d="M9.20495 16.8074L4.4973 12.2995C3.56623 11.408 2.93216 10.272 2.67528 9.03542C2.41841 7.79879 2.55025 6.517 3.05415 5.35212C3.55805 4.18725 4.41137 3.19161 5.5062 2.49112C6.60103 1.79063 7.88821 1.41675 9.20495 1.41675C10.5217 1.41675 11.8089 1.79063 12.9037 2.49112C13.9985 3.19161 14.8518 4.18725 15.3557 5.35212C15.8596 6.517 15.9915 7.79879 15.7346 9.03542C15.4777 10.272 14.8437 11.408 13.9126 12.2995L9.20495 16.8074ZM12.8666 11.2979C13.5907 10.6045 14.0839 9.72099 14.2836 8.75919C14.4834 7.79738 14.3808 6.80045 13.9889 5.89446C13.5969 4.98847 12.9332 4.21412 12.0817 3.66931C11.2302 3.12451 10.2291 2.83372 9.20495 2.83372C8.18083 2.83372 7.17972 3.12451 6.32819 3.66931C5.47667 4.21412 4.81298 4.98847 4.42104 5.89446C4.02911 6.80045 3.92653 7.79738 4.12629 8.75919C4.32604 9.72099 4.81916 10.6045 5.54328 11.2979L9.20495 14.8042L12.8666 11.2979ZM9.20495 9.20836C8.81257 9.20836 8.43626 9.0591 8.15881 8.79343C7.88136 8.52775 7.72548 8.16742 7.72548 7.79169C7.72548 7.41597 7.88136 7.05563 8.15881 6.78996C8.43626 6.52428 8.81257 6.37503 9.20495 6.37503C9.59732 6.37503 9.97363 6.52428 10.2511 6.78996C10.5285 7.05563 10.6844 7.41597 10.6844 7.79169C10.6844 8.16742 10.5285 8.52775 10.2511 8.79343C9.97363 9.0591 9.59732 9.20836 9.20495 9.20836Z" fill="black"/>
</g>
<defs>
<clipPath id="clip0_58_311">
<rect width="17.7535" height="17" fill="white" transform="translate(0.328125)"/>
</clipPath>
</defs>
</svg>
