<svg width="22" height="22" viewBox="0 0 22 22" fill="none" xmlns="http://www.w3.org/2000/svg">
<g clip-path="url(#clip0_1_531)">
<path d="M10.9999 18.5457L15.1744 14.3712C16 13.5456 16.5621 12.4937 16.7899 11.3486C17.0176 10.2035 16.9007 9.01652 16.4538 7.93786C16.007 6.85921 15.2504 5.93727 14.2796 5.28863C13.3088 4.63999 12.1675 4.29378 10.9999 4.29378C9.83237 4.29378 8.69105 4.63999 7.72026 5.28863C6.74948 5.93727 5.99283 6.85921 5.546 7.93786C5.09918 9.01652 4.98224 10.2035 5.20997 11.3486C5.4377 12.4937 5.99988 13.5456 6.82542 14.3712L10.9999 18.5457ZM10.9999 20.9306L5.63294 15.5637C4.57147 14.5022 3.8486 13.1498 3.55575 11.6775C3.26289 10.2051 3.41321 8.67905 3.98768 7.29216C4.56215 5.90528 5.53498 4.71989 6.78315 3.88589C8.03131 3.05189 9.49876 2.60675 10.9999 2.60675C12.5011 2.60675 13.9685 3.05189 15.2167 3.88589C16.4648 4.71989 17.4377 5.90528 18.0122 7.29216C18.5866 8.67905 18.7369 10.2051 18.4441 11.6775C18.1512 13.1498 17.4284 14.5022 16.3669 15.5637L10.9999 20.9306ZM10.9999 11.8834C11.4472 11.8834 11.8763 11.7056 12.1926 11.3893C12.5089 11.073 12.6866 10.644 12.6866 10.1967C12.6866 9.74935 12.5089 9.32034 12.1926 9.00403C11.8763 8.68772 11.4472 8.51002 10.9999 8.51002C10.5526 8.51002 10.1236 8.68772 9.80726 9.00403C9.49095 9.32034 9.31325 9.74935 9.31325 10.1967C9.31325 10.644 9.49095 11.073 9.80726 11.3893C10.1236 11.7056 10.5526 11.8834 10.9999 11.8834ZM10.9999 13.57C10.1053 13.57 9.24723 13.2146 8.61461 12.582C7.98199 11.9494 7.62658 11.0913 7.62658 10.1967C7.62658 9.30202 7.98199 8.444 8.61461 7.81138C9.24723 7.17875 10.1053 6.82335 10.9999 6.82335C11.8946 6.82335 12.7526 7.17875 13.3852 7.81138C14.0178 8.444 14.3732 9.30202 14.3732 10.1967C14.3732 11.0913 14.0178 11.9494 13.3852 12.582C12.7526 13.2146 11.8946 13.57 10.9999 13.57Z" fill="#00A6F6"/>
</g>
<defs>
<clipPath id="clip0_1_531">
<rect width="20.24" height="20.24" fill="white" transform="translate(0.879883 0.919983)"/>
</clipPath>
</defs>
</svg>
