<svg width="23" height="23" viewBox="0 0 23 23" fill="none" xmlns="http://www.w3.org/2000/svg">
<path d="M16.5886 15.2877L20.529 19.2271L19.2272 20.5289L15.2877 16.5885C13.8219 17.7636 11.9987 18.4027 10.1201 18.4C5.54953 18.4 1.84009 14.6906 1.84009 10.12C1.84009 5.54947 5.54953 1.84003 10.1201 1.84003C14.6906 1.84003 18.4001 5.54947 18.4001 10.12C18.4028 11.9987 17.7637 13.8219 16.5886 15.2877ZM14.7431 14.605C15.9107 13.4043 16.5627 11.7948 16.5601 10.12C16.5601 6.56147 13.6777 3.68003 10.1201 3.68003C6.56153 3.68003 3.68009 6.56147 3.68009 10.12C3.68009 13.6777 6.56153 16.56 10.1201 16.56C11.7949 16.5627 13.4044 15.9106 14.6051 14.743L14.7431 14.605Z" fill="#00A6F6"/>
</svg>
