<svg width="30" height="30" viewBox="0 0 30 30" fill="none" xmlns="http://www.w3.org/2000/svg">
<circle cx="14.9938" cy="14.9938" r="14.9938" fill="#00A6F6"/>
<g clip-path="url(#clip0_1_969)">
<path d="M20.8246 22.4907H9.16277C8.94185 22.4907 8.72997 22.403 8.57376 22.2467C8.41754 22.0905 8.32978 21.8787 8.32978 21.6577V14.1608H5.83081L14.4331 6.34072C14.5865 6.20117 14.7864 6.12384 14.9937 6.12384C15.201 6.12384 15.4009 6.20117 15.5543 6.34072L24.1566 14.1608H21.6576V21.6577C21.6576 21.8787 21.5699 22.0905 21.4136 22.2467C21.2574 22.403 21.0455 22.4907 20.8246 22.4907ZM9.99576 20.8247H19.9916V12.6256L14.9937 8.0825L9.99576 12.6256V20.8247ZM11.6617 17.4928H18.3257V19.1588H11.6617V17.4928Z" fill="white"/>
</g>
<defs>
<clipPath id="clip0_1_969">
<rect width="19.9918" height="19.9918" fill="white" transform="translate(4.9978 4.99792)"/>
</clipPath>
</defs>
</svg>
