<svg width="30" height="30" viewBox="0 0 30 30" fill="none" xmlns="http://www.w3.org/2000/svg">
<circle cx="14.9938" cy="14.9938" r="14.9938" fill="#00A6F6"/>
<g clip-path="url(#clip0_1_980)">
<path d="M9.16281 19.9918H20.8247V14.1867C20.8247 10.9522 18.2141 8.32992 14.9937 8.32992C11.7734 8.32992 9.16281 10.9522 9.16281 14.1867V19.9918ZM14.9937 6.66394C19.1337 6.66394 22.4906 10.0317 22.4906 14.1867V21.6578H7.49683V14.1867C7.49683 10.0317 10.8538 6.66394 14.9937 6.66394ZM12.9113 22.4907H17.0762C17.0762 23.0431 16.8568 23.5727 16.4663 23.9633C16.0757 24.3538 15.546 24.5732 14.9937 24.5732C14.4414 24.5732 13.9117 24.3538 13.5212 23.9633C13.1307 23.5727 12.9113 23.0431 12.9113 22.4907Z" fill="white"/>
</g>
<defs>
<clipPath id="clip0_1_980">
<rect width="19.9918" height="19.9918" fill="white" transform="translate(4.9978 4.99799)"/>
</clipPath>
</defs>
</svg>
