<svg width="30" height="30" viewBox="0 0 30 30" fill="none" xmlns="http://www.w3.org/2000/svg">
<circle cx="14.9938" cy="14.9938" r="14.9938" fill="#00A6F6"/>
<g clip-path="url(#clip0_1_992)">
<g clip-path="url(#clip1_1_992)">
<path d="M8.14906 7.35197L14.9937 5.83093L21.8384 7.35197C22.0234 7.39309 22.1888 7.49605 22.3074 7.64386C22.426 7.79166 22.4906 7.97548 22.4906 8.16497V16.484C22.4906 17.3068 22.2874 18.1168 21.8991 18.8422C21.5109 19.5676 20.9495 20.186 20.2649 20.6423L14.9937 24.1567L9.72257 20.6423C9.03808 20.186 8.47681 19.5678 8.08854 18.8426C7.70027 18.1174 7.49702 17.3075 7.49683 16.4849V8.16497C7.49686 7.97548 7.5615 7.79166 7.68008 7.64386C7.79865 7.49605 7.96408 7.39309 8.14906 7.35197ZM9.16281 8.83303V16.484C9.16281 17.0325 9.29823 17.5725 9.55703 18.0561C9.81583 18.5397 10.19 18.952 10.6464 19.2562L14.9937 22.155L19.3411 19.2562C19.7973 18.952 20.1714 18.5399 20.4302 18.0565C20.689 17.5731 20.8245 17.0332 20.8247 16.4849V8.83303L14.9937 7.53856L9.16281 8.83303Z" fill="white"/>
</g>
</g>
<defs>
<clipPath id="clip0_1_992">
<rect width="19.9918" height="19.9918" fill="white" transform="translate(4.9978 4.99792)"/>
</clipPath>
<clipPath id="clip1_1_992">
<rect width="19.9918" height="19.9918" fill="white" transform="translate(4.9978 4.99792)"/>
</clipPath>
</defs>
</svg>
