<svg width="30" height="30" viewBox="0 0 30 30" fill="none" xmlns="http://www.w3.org/2000/svg">
<circle cx="14.9938" cy="14.9938" r="14.9938" fill="#00A6F6"/>
<g clip-path="url(#clip0_1_1018)">
<g clip-path="url(#clip1_1_1018)">
<path d="M21.606 11.6619H22.4906C22.9324 11.6619 23.3562 11.8374 23.6686 12.1498C23.9811 12.4623 24.1566 12.886 24.1566 13.3279V16.6598C24.1566 17.1017 23.9811 17.5254 23.6686 17.8378C23.3562 18.1503 22.9324 18.3258 22.4906 18.3258H21.606C21.4029 19.9362 20.6191 21.4172 19.4017 22.4907C18.1842 23.5643 16.6169 24.1567 14.9937 24.1567V22.4907C16.3192 22.4907 17.5905 21.9642 18.5278 21.0269C19.4651 20.0896 19.9916 18.8183 19.9916 17.4928V12.4949C19.9916 11.1693 19.4651 9.89809 18.5278 8.96079C17.5905 8.0235 16.3192 7.49693 14.9937 7.49693C13.6682 7.49693 12.3969 8.0235 11.4596 8.96079C10.5223 9.89809 9.99576 11.1693 9.99576 12.4949V18.3258H7.49679C7.05494 18.3258 6.6312 18.1503 6.31876 17.8378C6.00633 17.5254 5.83081 17.1017 5.83081 16.6598V13.3279C5.83081 12.886 6.00633 12.4623 6.31876 12.1498C6.6312 11.8374 7.05494 11.6619 7.49679 11.6619H8.38142C8.5847 10.0516 9.36858 8.57088 10.586 7.49749C11.8034 6.42411 13.3707 5.83185 14.9937 5.83185C16.6167 5.83185 18.184 6.42411 19.4014 7.49749C20.6188 8.57088 21.4027 10.0516 21.606 11.6619ZM7.49679 13.3279V16.6598H8.32978V13.3279H7.49679ZM21.6576 13.3279V16.6598H22.4906V13.3279H21.6576ZM11.4618 18.1467L12.3448 16.734C13.1387 17.2313 14.0569 17.4943 14.9937 17.4928C15.9305 17.4943 16.8487 17.2313 17.6426 16.734L18.5256 18.1467C17.4671 18.8099 16.2428 19.1607 14.9937 19.1588C13.7446 19.1607 12.5203 18.8099 11.4618 18.1467Z" fill="white"/>
</g>
</g>
<defs>
<clipPath id="clip0_1_1018">
<rect width="19.9918" height="19.9918" fill="white" transform="translate(4.9978 4.99796)"/>
</clipPath>
<clipPath id="clip1_1_1018">
<rect width="19.9918" height="19.9918" fill="white" transform="translate(4.9978 4.99796)"/>
</clipPath>
</defs>
</svg>
