<svg width="30" height="30" viewBox="0 0 30 30" fill="none" xmlns="http://www.w3.org/2000/svg">
<circle cx="14.9938" cy="14.9938" r="14.9938" fill="#00A6F6"/>
<g clip-path="url(#clip0_1_1005)">
<g clip-path="url(#clip1_1_1005)">
<path d="M9.16281 18.3258V23.3237H7.49683V7.49689H15.3119C15.4666 7.49697 15.6182 7.54011 15.7497 7.62146C15.8812 7.70282 15.9875 7.81919 16.0566 7.95753L16.6597 9.16287H21.6576C21.8786 9.16287 22.0904 9.25063 22.2467 9.40684C22.4029 9.56306 22.4906 9.77493 22.4906 9.99586V19.1587C22.4906 19.3797 22.4029 19.5915 22.2467 19.7478C22.0904 19.904 21.8786 19.9917 21.6576 19.9917H16.3415C16.1869 19.9916 16.0353 19.9485 15.9038 19.8672C15.7722 19.7858 15.6659 19.6694 15.5968 19.5311L14.9937 18.3258H9.16281ZM9.16281 9.16287V16.6598H16.0233L16.8563 18.3258H20.8247V10.8288H15.6301L14.7971 9.16287H9.16281Z" fill="white"/>
</g>
</g>
<defs>
<clipPath id="clip0_1_1005">
<rect width="19.9918" height="19.9918" fill="white" transform="translate(4.9978 4.99792)"/>
</clipPath>
<clipPath id="clip1_1_1005">
<rect width="19.9918" height="19.9918" fill="white" transform="translate(4.9978 4.99792)"/>
</clipPath>
</defs>
</svg>
