<svg width="14" height="14" viewBox="0 0 14 14" fill="none" xmlns="http://www.w3.org/2000/svg">
<g clip-path="url(#clip0_1_206)">
<path d="M10.14 9.83109L6.78125 13.1899L3.42247 9.83109C2.75818 9.16679 2.30579 8.32042 2.12252 7.39901C1.93924 6.4776 2.03331 5.52254 2.39283 4.65459C2.75235 3.78665 3.36117 3.0448 4.1423 2.52287C4.92343 2.00093 5.84179 1.72235 6.78125 1.72235C7.72071 1.72235 8.63907 2.00093 9.4202 2.52287C10.2013 3.0448 10.8102 3.78665 11.1697 4.65459C11.5292 5.52254 11.6233 6.4776 11.44 7.39901C11.2567 8.32042 10.8043 9.16679 10.14 9.83109ZM6.78125 7.52786C7.0612 7.52786 7.32969 7.41665 7.52764 7.2187C7.7256 7.02074 7.83681 6.75226 7.83681 6.47231C7.83681 6.19236 7.7256 5.92387 7.52764 5.72592C7.32969 5.52796 7.0612 5.41675 6.78125 5.41675C6.5013 5.41675 6.23282 5.52796 6.03486 5.72592C5.83691 5.92387 5.7257 6.19236 5.7257 6.47231C5.7257 6.75226 5.83691 7.02074 6.03486 7.2187C6.23282 7.41665 6.5013 7.52786 6.78125 7.52786Z" fill="white" fill-opacity="0.85"/>
</g>
<defs>
<clipPath id="clip0_1_206">
<rect width="12.6667" height="12.6667" fill="white" transform="translate(0.447266 0.666565)"/>
</clipPath>
</defs>
</svg>
