<svg width="26" height="26" viewBox="0 0 26 26" fill="none" xmlns="http://www.w3.org/2000/svg">
<g clip-path="url(#clip0_1_558)">
<g clip-path="url(#clip1_1_558)">
<path d="M18.3626 12.9458C19.2803 12.0289 19.9473 10.8918 20.2997 9.64331C20.6521 8.39483 20.6782 7.07678 20.3754 5.81534L23.0783 4.65617C23.1608 4.62083 23.2507 4.60652 23.34 4.61451C23.4293 4.62249 23.5153 4.65254 23.5901 4.70193C23.665 4.75133 23.7264 4.81854 23.7688 4.89753C23.8113 4.97652 23.8335 5.06482 23.8334 5.1545V20.5833L16.2501 23.8333L9.75008 20.5833L2.92183 23.5094C2.8394 23.5448 2.74949 23.5591 2.66017 23.5511C2.57084 23.5431 2.4849 23.513 2.41005 23.4636C2.3352 23.4143 2.27379 23.347 2.23132 23.2681C2.18886 23.1891 2.16667 23.1008 2.16675 23.0111V7.58333L5.5565 6.13059C5.31799 7.34996 5.38307 8.60929 5.74598 9.79759C6.10889 10.9859 6.75851 12.0667 7.63758 12.9448L13.0001 18.3083L18.3626 12.9458ZM16.8307 11.414L13.0001 15.2425L9.16941 11.4129C8.41202 10.6553 7.89628 9.69017 7.68739 8.63948C7.4785 7.58878 7.58585 6.49975 7.99587 5.51006C8.40589 4.52038 9.10016 3.6745 9.99089 3.07937C10.8816 2.48424 11.9288 2.1666 13.0001 2.1666C14.0713 2.1666 15.1185 2.48424 16.0093 3.07937C16.9 3.6745 17.5943 4.52038 18.0043 5.51006C18.4143 6.49975 18.5217 7.58878 18.3128 8.63948C18.1039 9.69017 17.5881 10.6553 16.8307 11.4129V11.414Z" fill="#00A6F6"/>
</g>
</g>
<defs>
<clipPath id="clip0_1_558">
<rect width="26" height="26" fill="white"/>
</clipPath>
<clipPath id="clip1_1_558">
<rect width="26" height="26" fill="white"/>
</clipPath>
</defs>
</svg>
