<svg width="26" height="26" viewBox="0 0 26 26" fill="none" xmlns="http://www.w3.org/2000/svg">
<g clip-path="url(#clip0_1_225)">
<path d="M4.33317 6.65491V20.5476L9.82025 18.1967L16.3203 21.4467L21.6665 19.1533V5.26174L23.0781 4.65724C23.1605 4.62191 23.2504 4.60759 23.3397 4.61558C23.4291 4.62357 23.515 4.65361 23.5899 4.70301C23.6647 4.75241 23.7261 4.81962 23.7686 4.89861C23.8111 4.9776 23.8332 5.0659 23.8332 5.15558V20.5833L16.2498 23.8333L9.74984 20.5833L2.92159 23.5094C2.83916 23.5447 2.74925 23.5591 2.65993 23.5511C2.5706 23.5431 2.48466 23.513 2.40981 23.4636C2.33496 23.4142 2.27354 23.347 2.23108 23.268C2.18861 23.1891 2.16642 23.1008 2.1665 23.0111V7.58333L4.33317 6.65491ZM17.5964 12.1799L12.9998 16.7754L8.40325 12.1799C7.49432 11.2708 6.87537 10.1126 6.62465 8.85179C6.37394 7.59094 6.50272 6.28407 6.99473 5.09641C7.48673 3.90875 8.31985 2.89366 9.38874 2.17948C10.4576 1.4653 11.7143 1.08411 12.9998 1.08411C14.2854 1.08411 15.542 1.4653 16.6109 2.17948C17.6798 2.89366 18.5129 3.90875 19.0049 5.09641C19.497 6.28407 19.6257 7.59094 19.375 8.85179C19.1243 10.1126 18.5054 11.2708 17.5964 12.1799V12.1799ZM12.9998 13.7117L16.0635 10.647C16.6697 10.041 17.0825 9.2689 17.2498 8.42828C17.4171 7.58766 17.3314 6.7163 17.0034 5.92441C16.6755 5.13252 16.1201 4.45567 15.4074 3.97946C14.6948 3.50325 13.8569 3.24907 12.9998 3.24907C12.1427 3.24907 11.3049 3.50325 10.5922 3.97946C9.87959 4.45567 9.32417 5.13252 8.99623 5.92441C8.66829 6.7163 8.58255 7.58766 8.74986 8.42828C8.91717 9.2689 9.33001 10.041 9.93617 10.647L12.9998 13.7117Z" fill="#00A6F6"/>
</g>
<defs>
<clipPath id="clip0_1_225">
<rect width="26" height="26" fill="white"/>
</clipPath>
</defs>
</svg>
