<svg width="28" height="28" viewBox="0 0 28 28" fill="none" xmlns="http://www.w3.org/2000/svg">
<g clip-path="url(#clip0_1_230)">
<path d="M14.0013 5.28381C16.7418 2.82331 20.9768 2.90498 23.617 5.54981C26.256 8.19581 26.347 12.4098 23.8923 15.1585L13.999 25.0658L4.108 15.1585C1.65334 12.4098 1.7455 8.18881 4.38334 5.54981C7.02584 2.90848 11.2527 2.81981 14.0013 5.28381ZM21.965 7.19831C20.215 5.44598 17.3917 5.37481 15.56 7.01981L14.0025 8.41748L12.4438 7.02098C10.6063 5.37364 7.78884 5.44598 6.03417 7.20064C4.29584 8.93898 4.20834 11.7215 5.81017 13.5601L14.0002 21.763L22.1902 13.5613C23.7932 11.7215 23.7057 8.94248 21.965 7.19831Z" fill="#00A6F6"/>
</g>
<defs>
<clipPath id="clip0_1_230">
<rect width="28" height="28" fill="white"/>
</clipPath>
</defs>
</svg>
