<svg width="28" height="28" viewBox="0 0 28 28" fill="none" xmlns="http://www.w3.org/2000/svg">
<g clip-path="url(#clip0_1_727)">
<path d="M14.0011 5.28383C16.7416 2.82333 20.9766 2.905 23.6168 5.54983C26.2558 8.19583 26.3468 12.4098 23.8921 15.1585L13.9988 25.0658L4.10776 15.1585C1.65309 12.4098 1.74526 8.18883 4.38309 5.54983C7.02559 2.9085 11.2524 2.81983 14.0011 5.28383ZM21.9648 7.19833C20.2148 5.446 17.3914 5.37483 15.5598 7.01983L14.0023 8.4175L12.4436 7.021C10.6061 5.37367 7.78859 5.446 6.03393 7.20067C4.29559 8.939 4.20809 11.7215 5.80993 13.5602L13.9999 21.763L22.1899 13.5613C23.7929 11.7215 23.7054 8.9425 21.9648 7.19833Z" fill="#00A6F6"/>
<g clip-path="url(#clip1_1_727)">
<path d="M14.001 6.529C16.35 4.42 19.98 4.49 22.243 6.757C24.505 9.025 24.583 12.637 22.479 14.993L13.999 23.485L5.52101 14.993C3.41701 12.637 3.49601 9.019 5.75701 6.757C8.02201 4.493 11.645 4.417 14.001 6.529Z" fill="#00A6F6"/>
</g>
</g>
<defs>
<clipPath id="clip0_1_727">
<rect width="28" height="28" fill="white"/>
</clipPath>
<clipPath id="clip1_1_727">
<rect width="24" height="24" fill="white" transform="translate(2 2)"/>
</clipPath>
</defs>
</svg>
