<svg width="21" height="22" viewBox="0 0 21 22" fill="none" xmlns="http://www.w3.org/2000/svg">
<path d="M11.625 19.3751H18.375V9.22531L10.5 3.10081L2.625 9.22531V19.3751H9.375V12.6251H11.625V19.3751ZM20.625 20.5001C20.625 20.7984 20.5065 21.0846 20.2955 21.2956C20.0845 21.5065 19.7984 21.6251 19.5 21.6251H1.5C1.20163 21.6251 0.915484 21.5065 0.704505 21.2956C0.493527 21.0846 0.375 20.7984 0.375 20.5001V8.67631C0.374881 8.50488 0.413944 8.33568 0.489206 8.18165C0.564467 8.02762 0.673935 7.89282 0.80925 7.78756L9.80925 0.787812C10.0067 0.634188 10.2498 0.550781 10.5 0.550781C10.7502 0.550781 10.9933 0.634188 11.1908 0.787812L20.1908 7.78756C20.3261 7.89282 20.4355 8.02762 20.5108 8.18165C20.5861 8.33568 20.6251 8.50488 20.625 8.67631V20.5001Z" fill="#00A6F6"/>
</svg>
