<svg width="25" height="25" viewBox="0 0 25 25" fill="none" xmlns="http://www.w3.org/2000/svg">
<g clip-path="url(#clip0_1_1363)">
<path d="M17.1875 3.125C15.375 3.125 13.6354 3.96875 12.5 5.30208C11.3646 3.96875 9.62501 3.125 7.81251 3.125C4.60418 3.125 2.08334 5.64583 2.08334 8.85417C2.08334 12.7917 5.62501 16 10.9896 20.875L12.5 22.2396L14.0104 20.8646C19.375 16 22.9167 12.7917 22.9167 8.85417C22.9167 5.64583 20.3958 3.125 17.1875 3.125ZM12.6042 19.3229L12.5 19.4271L12.3958 19.3229C7.43751 14.8333 4.16668 11.8646 4.16668 8.85417C4.16668 6.77083 5.72918 5.20833 7.81251 5.20833C9.41668 5.20833 10.9792 6.23958 11.5313 7.66667H13.4792C14.0208 6.23958 15.5833 5.20833 17.1875 5.20833C19.2708 5.20833 20.8333 6.77083 20.8333 8.85417C20.8333 11.8646 17.5625 14.8333 12.6042 19.3229Z" fill="#FF0000"/>
</g>
<defs>
<clipPath id="clip0_1_1363">
<rect width="25" height="25" fill="white"/>
</clipPath>
</defs>
</svg>
