<svg width="25" height="25" viewBox="0 0 25 25" fill="none" xmlns="http://www.w3.org/2000/svg">
<g clip-path="url(#clip0_1_621)">
<g clip-path="url(#clip1_1_621)">
<path d="M11.2626 1.3625L22.3989 2.95438L23.9897 14.0919L13.6487 24.4329C13.4377 24.6438 13.1516 24.7623 12.8533 24.7623C12.555 24.7623 12.2689 24.6438 12.058 24.4329L0.920449 13.2954C0.709544 13.0844 0.591064 12.7983 0.591064 12.5C0.591064 12.2017 0.709544 11.9156 0.920449 11.7046L11.2626 1.3625ZM14.4441 10.9093C14.653 11.1182 14.9011 11.2838 15.1741 11.3969C15.4471 11.5099 15.7397 11.5681 16.0352 11.568C16.3307 11.5679 16.6233 11.5097 16.8963 11.3966C17.1692 11.2834 17.4172 11.1177 17.6261 10.9087C17.835 10.6997 18.0007 10.4516 18.1138 10.1786C18.2268 9.90562 18.2849 9.61302 18.2849 9.31754C18.2848 9.02206 18.2266 8.72948 18.1135 8.45651C18.0003 8.18354 17.8345 7.93553 17.6256 7.72663C17.4166 7.51773 17.1685 7.35203 16.8955 7.23901C16.6225 7.12598 16.3299 7.06783 16.0344 7.06788C15.4377 7.06799 14.8654 7.30515 14.4435 7.72719C14.0216 8.14923 13.7847 8.72159 13.7848 9.31834C13.7849 9.91509 14.022 10.4874 14.4441 10.9093Z" fill="#00A6F6"/>
</g>
</g>
<defs>
<clipPath id="clip0_1_621">
<rect width="25" height="25" fill="white"/>
</clipPath>
<clipPath id="clip1_1_621">
<rect width="27" height="27" fill="white" transform="translate(-1 -1)"/>
</clipPath>
</defs>
</svg>
