<svg width="25" height="25" viewBox="0 0 25 25" fill="none" xmlns="http://www.w3.org/2000/svg">
<g clip-path="url(#clip0_1_218)">
<path d="M11.3542 2.1875L21.6656 3.66146L23.1385 13.974L13.5635 23.549C13.3682 23.7442 13.1033 23.8539 12.8271 23.8539C12.5509 23.8539 12.286 23.7442 12.0906 23.549L1.77813 13.2365C1.58285 13.0411 1.47314 12.7762 1.47314 12.5C1.47314 12.2238 1.58285 11.9589 1.77813 11.7635L11.3542 2.1875ZM12.0906 4.39792L3.98751 12.5L12.8271 21.3385L20.9292 13.2365L19.825 5.50208L12.0906 4.39792ZM14.299 11.0271C13.9082 10.6362 13.6887 10.106 13.6888 9.55328C13.6888 9.27959 13.7428 9.00859 13.8476 8.75575C13.9524 8.50291 14.1059 8.27318 14.2995 8.07969C14.493 7.88619 14.7228 7.73272 14.9757 7.62803C15.2286 7.52333 15.4996 7.46947 15.7733 7.46952C16.326 7.46962 16.8561 7.68929 17.2469 8.08021C17.6377 8.47113 17.8571 9.00127 17.857 9.55401C17.8569 10.1068 17.6373 10.6368 17.2464 11.0276C16.8554 11.4184 16.3253 11.6379 15.7726 11.6378C15.2198 11.6377 14.6897 11.418 14.299 11.0271Z" fill="#00A6F6"/>
</g>
<defs>
<clipPath id="clip0_1_218">
<rect width="25" height="25" fill="white"/>
</clipPath>
</defs>
</svg>
