<svg width="25" height="25" viewBox="0 0 25 25" fill="none" xmlns="http://www.w3.org/2000/svg">
<g clip-path="url(#clip0_1_236)">
<path d="M20.8332 22.9167H18.7498V20.8334C18.7498 20.0046 18.4206 19.2097 17.8345 18.6236C17.2485 18.0376 16.4536 17.7084 15.6248 17.7084H9.37484C8.54604 17.7084 7.75118 18.0376 7.16513 18.6236C6.57908 19.2097 6.24984 20.0046 6.24984 20.8334V22.9167H4.1665V20.8334C4.1665 19.452 4.71524 18.1273 5.69199 17.1505C6.66874 16.1738 7.9935 15.625 9.37484 15.625H15.6248C17.0062 15.625 18.3309 16.1738 19.3077 17.1505C20.2844 18.1273 20.8332 19.452 20.8332 20.8334V22.9167ZM12.4998 13.5417C11.6791 13.5417 10.8664 13.38 10.1081 13.0659C9.34978 12.7518 8.66079 12.2915 8.08042 11.7111C7.50005 11.1307 7.03968 10.4417 6.72559 9.68346C6.4115 8.92517 6.24984 8.11245 6.24984 7.29169C6.24984 6.47092 6.4115 5.6582 6.72559 4.89992C7.03968 4.14163 7.50005 3.45264 8.08042 2.87227C8.66079 2.2919 9.34978 1.83153 10.1081 1.51744C10.8664 1.20335 11.6791 1.04169 12.4998 1.04169C14.1574 1.04169 15.7472 1.70017 16.9193 2.87227C18.0914 4.04437 18.7498 5.63408 18.7498 7.29169C18.7498 8.94929 18.0914 10.539 16.9193 11.7111C15.7472 12.8832 14.1574 13.5417 12.4998 13.5417ZM12.4998 11.4584C13.6049 11.4584 14.6647 11.0194 15.4461 10.238C16.2275 9.45656 16.6665 8.39676 16.6665 7.29169C16.6665 6.18662 16.2275 5.12681 15.4461 4.34541C14.6647 3.56401 13.6049 3.12502 12.4998 3.12502C11.3948 3.12502 10.335 3.56401 9.55356 4.34541C8.77216 5.12681 8.33317 6.18662 8.33317 7.29169C8.33317 8.39676 8.77216 9.45656 9.55356 10.238C10.335 11.0194 11.3948 11.4584 12.4998 11.4584Z" fill="#00A6F6"/>
</g>
<defs>
<clipPath id="clip0_1_236">
<rect width="25" height="25" fill="white"/>
</clipPath>
</defs>
</svg>
