<svg width="25" height="25" viewBox="0 0 25 25" fill="none" xmlns="http://www.w3.org/2000/svg">
<g clip-path="url(#clip0_1_1052)">
<g clip-path="url(#clip1_1_1052)">
<path d="M21.5 23.75H3.5V21.5C3.5 20.0082 4.09263 18.5774 5.14752 17.5225C6.20242 16.4676 7.63316 15.875 9.125 15.875H15.875C17.3668 15.875 18.7976 16.4676 19.8525 17.5225C20.9074 18.5774 21.5 20.0082 21.5 21.5V23.75ZM12.5 13.625C11.6136 13.625 10.7358 13.4504 9.91689 13.1112C9.09794 12.772 8.35382 12.2748 7.72703 11.648C7.10023 11.0212 6.60303 10.2771 6.26381 9.45811C5.92459 8.63917 5.75 7.76142 5.75 6.875C5.75 5.98858 5.92459 5.11083 6.26381 4.29189C6.60303 3.47294 7.10023 2.72882 7.72703 2.10203C8.35382 1.47523 9.09794 0.978032 9.91689 0.638813C10.7358 0.299594 11.6136 0.125 12.5 0.125C14.2902 0.125 16.0071 0.836159 17.273 2.10203C18.5388 3.3679 19.25 5.08479 19.25 6.875C19.25 8.66521 18.5388 10.3821 17.273 11.648C16.0071 12.9138 14.2902 13.625 12.5 13.625Z" fill="#00A6F6"/>
</g>
</g>
<defs>
<clipPath id="clip0_1_1052">
<rect width="25" height="25" fill="white"/>
</clipPath>
<clipPath id="clip1_1_1052">
<rect width="27" height="27" fill="white" transform="translate(-1 -1)"/>
</clipPath>
</defs>
</svg>
